<svg width="170" height="147" viewBox="0 0 170 147" fill="none" xmlns="http://www.w3.org/2000/svg">
<g clip-path="url(#clip0_1_364)">
<path d="M27.1725 45.044C26.852 44.703 26.3141 44.6848 25.9711 45.0033L20.3803 50.1932C20.0372 50.5117 20.0189 51.0463 20.3393 51.3873C20.6598 51.7283 21.1976 51.7465 21.5407 51.428L26.5101 46.8148L31.1516 51.7541C31.4721 52.0951 32.01 52.1134 32.353 51.7949C32.6961 51.4764 32.7145 50.9417 32.3942 50.6008L27.1725 45.044ZM26.3495 76.2604L27.4008 45.6496L25.7018 45.5918L24.6505 76.2028L26.3495 76.2604Z" fill="black"/>
<path d="M25.6802 57.4402C25.6802 26.6501 46.3755 1.68967 71.9044 1.68967C97.4333 1.68967 118.129 26.6501 118.129 57.4402V98.6804" stroke="#0D0D0D" stroke-width="0.5" stroke-dasharray="10 10"/>
<path d="M147.897 85.664H98.6C91.0889 85.664 85 91.7159 85 99.1812V129.374C85 136.84 91.0889 142.892 98.6 142.892H147.897C155.408 142.892 161.497 136.84 161.497 129.374V99.1812C161.497 91.7159 155.408 85.664 147.897 85.664Z" fill="#191C26"/>
<path d="M102.503 102.29L112.525 64.7263L146.537 75.6753L133.535 115.575L102.503 102.29Z" fill="#1FA00A" stroke="#01771B" stroke-width="0.5"/>
<path d="M114.786 82.0338L121.948 76.7632L134.895 80.9309L138.2 87.3616L131.414 108.183L108.653 100.856L114.786 82.0338Z" fill="#1FA00A" stroke="#01771B" stroke-width="0.5"/>
<path d="M119.05 93.2717L122.692 90.5076L129.26 92.6218L130.885 95.9106L127.315 106.863L115.826 103.165L119.05 93.2717Z" fill="#1FA00A" stroke="#01771B" stroke-width="0.5"/>
<path d="M101.711 94.6942L107.511 56.2621L142.529 63.4219L134.027 104.502L101.711 94.6942Z" fill="#1FA00A" stroke="#01771B" stroke-width="0.5"/>
<path d="M111.676 73.2168L118.211 67.1944L131.541 69.9198L135.537 75.9496L131.1 97.3871L107.665 92.5956L111.676 73.2168Z" fill="#1FA00A" stroke="#01771B" stroke-width="0.5"/>
<path d="M117.159 83.9198L120.473 80.7738L127.235 82.1563L129.214 85.2472L126.88 96.5243L115.051 94.1057L117.159 83.9198Z" fill="#1FA00A" stroke="#01771B" stroke-width="0.5"/>
<path d="M155.299 89.7518H98.6C91.0889 89.7518 85 95.8037 85 103.269V129.375C85 136.84 91.0889 142.892 98.6 142.892H155.299C162.81 142.892 168.899 136.84 168.899 129.375V103.269C168.899 95.8037 162.81 89.7518 155.299 89.7518Z" fill="#323647"/>
<path d="M168.077 128.561V103.986C168.077 96.5616 162.052 90.5268 154.582 90.4692L115.023 90.1644L133.53 142.078H154.477C161.988 142.078 168.077 136.026 168.077 128.561Z" fill="#212329" fill-opacity="0.7"/>
<path d="M145.046 114.278C145.046 109.763 148.728 106.103 153.271 106.103H168.899V122.453H153.271C148.728 122.453 145.046 118.793 145.046 114.278Z" fill="#141721"/>
<path d="M156.561 118.365C158.833 118.365 160.674 116.535 160.674 114.278C160.674 112.02 158.833 110.19 156.561 110.19C154.29 110.19 152.449 112.02 152.449 114.278C152.449 116.535 154.29 118.365 156.561 118.365Z" fill="#AAACB2"/>
<path d="M41.7588 58.0956H8.31746C4.70276 58.0956 1.77246 61.008 1.77246 64.6008V140.069C1.77246 143.662 4.70276 146.574 8.31746 146.574H41.7588C45.3735 146.574 48.3038 143.662 48.3038 140.069V64.6008C48.3038 61.008 45.3735 58.0956 41.7588 58.0956Z" fill="#323647" stroke="black" stroke-width="0.3"/>
<path d="M4.55241 65.7462C4.55241 63.8798 6.07464 62.3669 7.95241 62.3669H42.124C44.0016 62.3669 45.524 63.8798 45.524 65.7462V140.432C45.524 142.298 44.0016 143.811 42.124 143.811H7.95241C6.07464 143.811 4.55241 142.298 4.55241 140.432V65.7462Z" fill="white" fill-opacity="0.8"/>
<path d="M13.6572 57.8421H37.9365V60.4957C37.9365 62.3621 36.4143 63.875 34.5365 63.875H17.0571C15.1794 63.875 13.6572 62.3621 13.6572 60.4957V57.8421Z" fill="#323647"/>
<path d="M48.5588 81.9738V75.9409C49.3969 75.9409 50.0764 76.6162 50.0764 77.4492V80.4656C50.0764 81.2986 49.3969 81.9738 48.5588 81.9738Z" fill="#323647"/>
<path d="M1.51746 81.9738V72.9245C0.679391 72.9245 0 73.5997 0 74.4327V80.4656C0 81.2986 0.679391 81.9738 1.51746 81.9738Z" fill="#323647"/>
<path d="M48.5588 89.5151V83.4821C49.3969 83.4821 50.0764 84.1573 50.0764 84.9903V88.0067C50.0764 88.8397 49.3969 89.5151 48.5588 89.5151Z" fill="#323647"/>
<path d="M25.5 113.207C32.0722 113.207 37.4 107.912 37.4 101.379C37.4 94.8471 32.0722 89.5517 25.5 89.5517C18.9278 89.5517 13.6 94.8471 13.6 101.379C13.6 107.912 18.9278 113.207 25.5 113.207Z" fill="#FFCF55"/>
<path d="M25.6777 110.029C30.5823 110.029 34.5583 106.078 34.5583 101.203C34.5583 96.328 30.5823 92.3762 25.6777 92.3762C20.773 92.3762 16.7971 96.328 16.7971 101.203C16.7971 106.078 20.773 110.029 25.6777 110.029Z" fill="#FBB500"/>
<path d="M25.6777 110.029C30.5822 110.029 34.5583 106.078 34.5583 101.203C34.5583 96.3281 30.5822 92.3762 25.6777 92.3762C31.5387 93.9649 33.4925 96.26 33.6702 101.203C33.8186 105.334 30.4732 109.147 25.6777 110.029Z" fill="#D39800"/>
<mask id="mask0_1_364" style="mask-type:luminance" maskUnits="userSpaceOnUse" x="21" y="95" width="9" height="13">
<path d="M29.2299 95.2007H21.7702V107.205H29.2299V95.2007Z" fill="white"/>
</mask>
<g mask="url(#mask0_1_364)">
<path d="M25.2387 106.948V95.3934H25.9835V106.948H25.2387ZM27.3867 99.09C27.3443 98.6958 27.1657 98.3888 26.8508 98.1691C26.5389 97.9495 26.1333 97.8397 25.6338 97.8397C25.2826 97.8397 24.9813 97.8924 24.7301 97.9976C24.4788 98.1029 24.2865 98.2458 24.1533 98.4265C24.0202 98.6069 23.952 98.8131 23.9489 99.0447C23.9489 99.2373 23.9928 99.4043 24.0807 99.5459C24.1715 99.6873 24.294 99.8076 24.4486 99.907C24.6029 100.003 24.7739 100.084 24.9616 100.151C25.1493 100.217 25.3385 100.272 25.5292 100.318L26.4012 100.534C26.7524 100.615 27.09 100.725 27.4139 100.864C27.7408 101.002 28.033 101.177 28.2904 101.387C28.5507 101.598 28.7565 101.852 28.908 102.15C29.0593 102.448 29.1349 102.797 29.1349 103.197C29.1349 103.739 28.9957 104.216 28.7173 104.628C28.4386 105.037 28.0361 105.358 27.5092 105.589C26.9855 105.818 26.3512 105.933 25.6064 105.933C24.8829 105.933 24.2548 105.821 23.7218 105.599C23.1921 105.376 22.7773 105.051 22.4776 104.624C22.1809 104.196 22.0204 103.676 21.9961 103.062H23.6538C23.6779 103.384 23.7779 103.652 23.9535 103.865C24.1291 104.079 24.3576 104.238 24.6391 104.344C24.9237 104.449 25.2416 104.502 25.5928 104.502C25.9592 104.502 26.2801 104.448 26.5555 104.339C26.8342 104.228 27.0521 104.074 27.2095 103.879C27.3669 103.68 27.4472 103.448 27.4502 103.184C27.4472 102.943 27.3761 102.744 27.2367 102.588C27.0975 102.428 26.9022 102.296 26.6509 102.191C26.4027 102.082 26.112 101.986 25.779 101.902L24.7209 101.631C23.955 101.435 23.3495 101.139 22.9044 100.742C22.4624 100.342 22.2414 99.8106 22.2414 99.1486C22.2414 98.6039 22.3899 98.1271 22.6865 97.7178C22.9862 97.3086 23.3934 96.9911 23.9081 96.7654C24.4227 96.5368 25.0055 96.4224 25.6564 96.4224C26.3163 96.4224 26.8947 96.5368 27.3913 96.7654C27.8907 96.9911 28.2827 97.3056 28.5673 97.7087C28.8519 98.109 28.9988 98.5694 29.0078 99.09H27.3867Z" fill="#FFCF55"/>
</g>
</g>
<defs>
<clipPath id="clip0_1_364">
<rect width="170" height="147" fill="white"/>
</clipPath>
</defs>
</svg>
