<svg width="97" height="110" viewBox="0 0 97 110" fill="none" xmlns="http://www.w3.org/2000/svg">
<path d="M95.4163 28.192C82.9709 28.192 60.6533 11.4608 51.0503 3.09525C48.7456 4.99652 43.2143 9.48353 39.5267 12.2213C35.8391 14.9592 13.4066 24.0093 2.65124 28.192C2.45918 28.7624 3.11217 35.0367 7.26068 55.5704C11.4092 77.473 38.5664 98.9195 51.6265 106.905C59.693 101.201 78.0158 86.4852 86.7736 73.2523C95.5316 60.0195 96.1847 37.6983 95.4163 28.192Z" fill="#323647" stroke="black" stroke-width="0.3"/>
<path d="M89.9945 31.7272C79.2034 31.7272 59.8529 17.2023 51.5266 9.93982C49.5282 11.5904 44.7322 15.4857 41.5349 17.8625C38.3375 20.2393 18.887 28.0959 9.56145 31.7272C9.39493 32.2224 9.96112 37.6693 13.5581 55.4952C17.1551 74.5094 40.7022 93.1279 52.0261 100.06C59.0203 95.1086 74.9071 82.3333 82.5008 70.8452C90.0944 59.3574 90.6606 39.9801 89.9945 31.7272Z" stroke="black" stroke-dasharray="2 2"/>
<path d="M82.5009 70.8452C90.0944 59.3574 90.0587 40.571 89.3926 32.3181C78.812 32.3181 60.4001 19.3411 51.8216 11.9507C53.6109 30.5471 89.1532 57.0357 82.5009 70.8452Z" fill="#212329" fill-opacity="0.7"/>
<path d="M51.0207 76.1041C64.3858 76.1041 75.2203 65.3787 75.2203 52.1481C75.2203 38.9175 64.3858 28.192 51.0207 28.192C37.6556 28.192 26.8211 38.9175 26.8211 52.1481C26.8211 65.3787 37.6556 76.1041 51.0207 76.1041Z" fill="white"/>
<path fill-rule="evenodd" clip-rule="evenodd" d="M48.3687 62.4291L67.296 44.8012L62.3964 39.5996L45.7885 54.7231L38.4891 48.3463L33.7353 53.679L46.3474 64.6966L48.3687 62.4291Z" fill="#02B469"/>
</svg>
