<svg width="113" height="106" viewBox="0 0 113 106" fill="none" xmlns="http://www.w3.org/2000/svg">
<g clip-path="url(#clip0_1_575)">
<path d="M99.7913 80.1359C94.2077 90.6662 80.6255 97.9059 74.5323 100.21C73.8677 99.7708 72.8041 98.1693 73.8677 95.2733C90.3523 89.745 98.6834 74.1029 100.788 66.9729C102.782 66.9729 105.375 69.6057 99.7913 80.1359Z" fill="#323647" stroke="black" stroke-width="0.3"/>
<path d="M76.2909 97.1633C76.5121 98.2958 75.9904 99.4966 74.8896 100.528C73.7914 101.556 72.1428 102.386 70.2016 102.758C68.2603 103.129 66.418 102.967 65.012 102.418C63.6024 101.867 62.6663 100.945 62.4453 99.813C62.2242 98.6807 62.7459 97.4797 63.8467 96.4487C64.9449 95.4202 66.5935 94.5898 68.5346 94.2184C70.476 93.8469 72.3182 94.009 73.7243 94.5585C75.1338 95.1091 76.07 96.0311 76.2909 97.1633Z" fill="#323647" stroke="black" stroke-width="0.3"/>
<path d="M89.6869 14.3691C98.4272 23.023 103.364 34.7388 103.433 46.9704H92.9439C92.8754 37.4932 89.0435 28.4188 82.2703 21.7124C75.4357 14.9452 66.1657 11.1433 56.5 11.1433C46.8343 11.1433 37.5643 14.9451 30.7297 21.7124C23.9565 28.4188 20.1246 37.4932 20.0561 46.9704H9.56738C9.63593 34.7388 14.5729 23.023 23.3131 14.369C32.1148 5.65415 44.0524 0.758192 56.5 0.758194C68.9476 0.758196 80.8852 5.65417 89.6869 14.3691Z" fill="#323647" stroke="black" stroke-width="0.3"/>
<path d="M89.8713 14.8446C98.7218 23.6079 103.694 35.4936 103.694 47.8867H98.189C98.2215 40.647 93.984 23.3461 76.7736 12.0596C55.2603 -2.04847 25.2588 14.8446 23.1287 14.8446C31.9793 6.08129 43.9832 1.15813 56.5 1.15813C69.0166 1.15813 81.0206 6.08131 89.8713 14.8446Z" fill="#212329" fill-opacity="0.7"/>
<path d="M91.9901 40.2471H97.3979C102.028 40.2471 105.792 43.9438 105.829 48.5282L106.021 72.1203C106.059 76.757 102.273 80.536 97.5902 80.536H91.9901V40.2471Z" fill="#323647" stroke="black" stroke-width="0.3"/>
<path d="M112.739 53.81V66.9731C112.739 74.3773 106.747 80.3959 99.3019 80.5336V40.2495C106.747 40.3871 112.739 46.4056 112.739 53.81Z" fill="#323647" stroke="black" stroke-width="0.3"/>
<path d="M21.0098 40.2471H16.004C11.3474 40.2471 7.57251 43.9848 7.57251 48.5955V76.8452V78.4906C7.57251 79.6203 8.49735 80.536 9.6382 80.536H21.0098V40.2471Z" fill="#323647" stroke="black" stroke-width="0.3"/>
<path d="M0.260742 53.81V66.9731C0.260742 74.3773 6.25315 80.3959 13.698 80.5336V40.2495C6.25315 40.3871 0.260742 46.4056 0.260742 53.81Z" fill="#323647" stroke="black" stroke-width="0.3"/>
</g>
<defs>
<clipPath id="clip0_1_575">
<rect width="113" height="105" fill="white" transform="translate(0 0.5)"/>
</clipPath>
</defs>
</svg>
