<svg width="116" height="66" viewBox="0 0 116 66" fill="none" xmlns="http://www.w3.org/2000/svg">
<path d="M42.4277 25.6984C33.6353 25.3389 21.9392 31.8407 17.1902 35.1365L10.2703 36.0353L13.9337 59.8554L22.0749 58.0577C27.3665 56.5595 38.8455 54.1026 42.4277 56.2599C46.9053 58.9565 57.0815 63.0013 63.5944 64.3497C70.1073 65.698 77.8414 62.552 90.0531 54.9116C102.265 47.2712 112.848 39.6309 114.476 36.0353C116.105 32.44 105.928 32.8893 101.858 32.8893C98.6012 32.8893 87.2036 36.1877 81.9119 37.8367C77.0719 36.4977 70.8529 34.6935 67.258 32.8893C62.7804 30.6422 53.4181 26.1479 42.4277 25.6984Z" fill="#F3CD94"/>
<path d="M59.1168 44.5747C59.6596 44.5747 62.6176 44.9342 70.1073 46.3723C79.4696 48.17 89.646 48.6195 90.0531 44.5747C90.46 40.5297 90.0531 40.0803 85.1684 38.732C84.2055 38.4662 83.1002 38.1655 81.9119 37.8367M81.9119 37.8367C77.0719 36.4977 70.8529 34.6935 67.258 32.8893C62.7804 30.6422 53.4181 26.1479 42.4277 25.6984C33.6353 25.3389 21.9392 31.8407 17.1902 35.1365L10.2703 36.0353L13.9337 59.8554L22.0749 58.0577C27.3665 56.5595 38.8455 54.1026 42.4277 56.2599C46.9053 58.9565 57.0815 63.0013 63.5944 64.3497C70.1073 65.698 77.8414 62.552 90.0531 54.9116C102.265 47.2712 112.848 39.6309 114.476 36.0353C116.105 32.44 105.928 32.8893 101.858 32.8893C98.6012 32.8893 87.2036 36.1877 81.9119 37.8367Z" stroke="#B59464" stroke-width="0.3"/>
<path d="M15.1771 33.655L1.34883 35.4264L6.25563 64.6531L20.53 62.439L15.1771 33.655Z" fill="#323647" stroke="#222425" stroke-width="0.3"/>
<path d="M77.7333 26.9388C85.1828 26.9388 91.2217 20.9083 91.2217 13.4694C91.2217 6.03045 85.1828 0 77.7333 0C70.2839 0 64.245 6.03045 64.245 13.4694C64.245 20.9083 70.2839 26.9388 77.7333 26.9388Z" fill="#FFCF55"/>
<path d="M77.9348 23.3201C83.494 23.3201 88.0007 18.8198 88.0007 13.2683C88.0007 7.71689 83.494 3.21655 77.9348 3.21655C72.3755 3.21655 67.8688 7.71689 67.8688 13.2683C67.8688 18.8198 72.3755 23.3201 77.9348 23.3201Z" fill="#FBB500"/>
<path d="M77.9347 23.3201C83.4939 23.3201 88.0007 18.8198 88.0007 13.2683C88.0007 7.71689 83.4939 3.21655 77.9347 3.21655C84.5781 5.02588 86.7926 7.63933 86.994 13.2683C87.1622 17.9733 83.3702 22.315 77.9347 23.3201Z" fill="#D39800"/>
<mask id="mask0_1_251" style="mask-type:luminance" maskUnits="userSpaceOnUse" x="73" y="6" width="9" height="15">
<path d="M81.9611 6.43317H73.5057V20.1037H81.9611V6.43317Z" fill="white"/>
</mask>
<g mask="url(#mask0_1_251)">
<path d="M77.4371 19.8112V6.65247H78.2814V19.8112H77.4371ZM79.8719 10.8622C79.8238 10.4133 79.6213 10.0638 79.2645 9.81364C78.911 9.56348 78.4512 9.43841 77.885 9.43841C77.4869 9.43841 77.1455 9.49837 76.8606 9.61832C76.5758 9.73825 76.3579 9.90101 76.207 10.1066C76.0559 10.3122 75.9788 10.547 75.9753 10.8108C75.9753 11.0301 76.025 11.2203 76.1246 11.3814C76.2275 11.5424 76.3666 11.6795 76.5415 11.7926C76.7166 11.9023 76.9104 11.9948 77.1231 12.0701C77.336 12.1455 77.5504 12.209 77.7667 12.2603L78.7548 12.507C79.153 12.5996 79.5355 12.7246 79.9028 12.8823C80.2733 13.0399 80.6045 13.2386 80.8962 13.4785C81.1914 13.7184 81.4247 14.008 81.5963 14.3472C81.7679 14.6865 81.8536 15.084 81.8536 15.5398C81.8536 16.1565 81.6957 16.6996 81.3801 17.1692C81.0643 17.6352 80.608 18.0001 80.0109 18.264C79.4172 18.5245 78.6983 18.6546 77.8541 18.6546C77.034 18.6546 76.3219 18.5278 75.7179 18.2743C75.1174 18.0207 74.6473 17.6506 74.3076 17.164C73.9713 16.6774 73.7893 16.0846 73.762 15.3855H75.6408C75.6681 15.7522 75.7814 16.0571 75.9804 16.3005C76.1795 16.5438 76.4386 16.7253 76.7577 16.8454C77.0802 16.9652 77.4406 17.0252 77.8387 17.0252C78.2539 17.0252 78.6176 16.9635 78.9299 16.8401C79.2457 16.7134 79.4926 16.5387 79.6711 16.3159C79.8495 16.0897 79.9404 15.8259 79.944 15.5243C79.9404 15.2502 79.8599 15.024 79.702 14.8458C79.5442 14.6643 79.3228 14.5134 79.0379 14.3935C78.7566 14.2701 78.4272 14.1605 78.0496 14.0645L76.8504 13.7562C75.9821 13.5334 75.2959 13.1958 74.7914 12.7435C74.2904 12.2877 74.04 11.6829 74.04 10.929C74.04 10.3088 74.208 9.76566 74.5443 9.29963C74.8841 8.83359 75.3456 8.47207 75.929 8.21506C76.5124 7.95463 77.1729 7.82441 77.9107 7.82441C78.6588 7.82441 79.3142 7.95463 79.8771 8.21506C80.4432 8.47207 80.8876 8.83016 81.2101 9.28934C81.5327 9.7451 81.6992 10.2694 81.7094 10.8622H79.8719Z" fill="#FFCF55"/>
</g>
</svg>
