<svg width="1919" height="1203" viewBox="0 0 1919 1203" fill="none" xmlns="http://www.w3.org/2000/svg">
<g opacity="0.04" clip-path="url(#clip0_4808_3)">
<g opacity="0.92">
<mask id="mask0_4808_3" style="mask-type:luminance" maskUnits="userSpaceOnUse" x="-95" y="194" width="1953" height="1575">
<path d="M1530.06 194L-95 684.428L232.058 1768.15L1857.12 1277.73L1530.06 194Z" fill="white"/>
</mask>
<g mask="url(#mask0_4808_3)">
<path opacity="0.15" d="M616.317 1377.34L-27.0548 1226.26L163.932 1859.11L616.317 1377.34Z" stroke="url(#paint0_linear_4808_3)" stroke-width="20" stroke-miterlimit="10"/>
</g>
<mask id="mask1_4808_3" style="mask-type:luminance" maskUnits="userSpaceOnUse" x="-95" y="194" width="1953" height="1575">
<path d="M1530.06 194L-95 684.428L232.058 1768.15L1857.12 1277.73L1530.06 194Z" fill="white"/>
</mask>
<g mask="url(#mask1_4808_3)">
<path opacity="0.25" d="M708.911 1347.19L-14.5303 1177.31L200.224 1888.91L708.911 1347.19Z" stroke="white" stroke-width="2" stroke-miterlimit="10"/>
</g>
<mask id="mask2_4808_3" style="mask-type:luminance" maskUnits="userSpaceOnUse" x="-95" y="194" width="1953" height="1575">
<path d="M1530.06 194L-95 684.428L232.058 1768.15L1857.12 1277.73L1530.06 194Z" fill="white"/>
</mask>
<g mask="url(#mask2_4808_3)">
<path d="M430.688 1433.36L5.29974 1333.47L131.577 1751.9L430.688 1433.36Z" stroke="url(#paint1_linear_4808_3)" stroke-width="20" stroke-miterlimit="10"/>
</g>
<mask id="mask3_4808_3" style="mask-type:luminance" maskUnits="userSpaceOnUse" x="-95" y="194" width="1953" height="1575">
<path d="M1530.06 194L-95 684.428L232.058 1768.15L1857.12 1277.73L1530.06 194Z" fill="white"/>
</mask>
<g mask="url(#mask3_4808_3)">
<path d="M1163.6 1172.67L698.568 1642.24L1337.7 1810.37L1163.6 1172.67Z" stroke="url(#paint2_linear_4808_3)" stroke-width="20" stroke-miterlimit="10"/>
</g>
<mask id="mask4_4808_3" style="mask-type:luminance" maskUnits="userSpaceOnUse" x="-95" y="194" width="1953" height="1575">
<path d="M1530.06 194L-95 684.428L232.058 1768.15L1857.12 1277.73L1530.06 194Z" fill="white"/>
</mask>
<g mask="url(#mask4_4808_3)">
<path opacity="0.15" d="M1208.56 1001.6L527.969 1688.81L1463.35 1934.88L1208.56 1001.6Z" stroke="url(#paint3_linear_4808_3)" stroke-width="20" stroke-miterlimit="10"/>
</g>
<mask id="mask5_4808_3" style="mask-type:luminance" maskUnits="userSpaceOnUse" x="-95" y="194" width="1953" height="1575">
<path d="M1530.06 194L-95 684.428L232.058 1768.15L1857.12 1277.73L1530.06 194Z" fill="white"/>
</mask>
<g mask="url(#mask5_4808_3)">
<path d="M1382.44 811.51L1679.87 494.762L1805.44 910.839L1382.44 811.51Z" stroke="url(#paint4_linear_4808_3)" stroke-width="20" stroke-miterlimit="10"/>
</g>
<mask id="mask6_4808_3" style="mask-type:luminance" maskUnits="userSpaceOnUse" x="-95" y="194" width="1953" height="1575">
<path d="M1530.06 194L-95 684.428L232.058 1768.15L1857.12 1277.73L1530.06 194Z" fill="white"/>
</mask>
<g mask="url(#mask6_4808_3)">
<path opacity="0.15" d="M1235.18 855.95L1715 344.978L1917.56 1016.18L1235.18 855.95Z" stroke="url(#paint5_linear_4808_3)" stroke-width="20" stroke-miterlimit="10"/>
</g>
<mask id="mask7_4808_3" style="mask-type:luminance" maskUnits="userSpaceOnUse" x="-95" y="194" width="1953" height="1575">
<path d="M1530.06 194L-95 684.428L232.058 1768.15L1857.12 1277.73L1530.06 194Z" fill="white"/>
</mask>
<g mask="url(#mask7_4808_3)">
<path d="M1494.64 1153.76L1545.55 1467.19L1791.45 1266.42L1494.64 1153.76Z" stroke="#363753" stroke-width="20" stroke-miterlimit="10"/>
</g>
<mask id="mask8_4808_3" style="mask-type:luminance" maskUnits="userSpaceOnUse" x="-95" y="194" width="1953" height="1575">
<path d="M1530.06 194L-95 684.428L232.058 1768.15L1857.12 1277.73L1530.06 194Z" fill="white"/>
</mask>
<g mask="url(#mask8_4808_3)">
<path opacity="0.15" d="M1389.84 1025.35L1486.79 1622.15L1955 1239.86L1389.84 1025.35Z" stroke="url(#paint6_linear_4808_3)" stroke-width="20" stroke-miterlimit="10"/>
</g>
<mask id="mask9_4808_3" style="mask-type:luminance" maskUnits="userSpaceOnUse" x="-95" y="194" width="1953" height="1575">
<path d="M1530.06 194L-95 684.428L232.058 1768.15L1857.12 1277.73L1530.06 194Z" fill="white"/>
</mask>
<g mask="url(#mask9_4808_3)">
<path opacity="0.25" d="M1329.34 951.209L1444 1657.09L1997.79 1204.93L1329.34 951.209Z" stroke="white" stroke-width="2" stroke-miterlimit="10"/>
</g>
<mask id="mask10_4808_3" style="mask-type:luminance" maskUnits="userSpaceOnUse" x="-95" y="194" width="1953" height="1575">
<path d="M1530.06 194L-95 684.428L232.058 1768.15L1857.12 1277.73L1530.06 194Z" fill="white"/>
</mask>
<g mask="url(#mask10_4808_3)">
<path d="M1082.28 398.664L778.542 140.021L706.527 532.418L1082.28 398.664Z" stroke="url(#paint7_linear_4808_3)" stroke-width="20" stroke-miterlimit="10"/>
</g>
<mask id="mask11_4808_3" style="mask-type:luminance" maskUnits="userSpaceOnUse" x="-95" y="194" width="1953" height="1575">
<path d="M1530.06 194L-95 684.428L232.058 1768.15L1857.12 1277.73L1530.06 194Z" fill="white"/>
</mask>
<g mask="url(#mask11_4808_3)">
<path opacity="0.15" d="M1268.63 432.916L719.152 -34.9872L588.873 674.885L1268.63 432.916Z" stroke="url(#paint8_linear_4808_3)" stroke-width="20" stroke-miterlimit="10"/>
</g>
<mask id="mask12_4808_3" style="mask-type:luminance" maskUnits="userSpaceOnUse" x="-95" y="194" width="1953" height="1575">
<path d="M1530.06 194L-95 684.428L232.058 1768.15L1857.12 1277.73L1530.06 194Z" fill="white"/>
</mask>
<g mask="url(#mask12_4808_3)">
<path opacity="0.25" d="M1368.8 450.548L694.05 -124.023L534.071 747.679L1368.8 450.548Z" stroke="white" stroke-width="2" stroke-miterlimit="10"/>
</g>
<mask id="mask13_4808_3" style="mask-type:luminance" maskUnits="userSpaceOnUse" x="-95" y="194" width="1953" height="1575">
<path d="M1530.06 194L-95 684.428L232.058 1768.15L1857.12 1277.73L1530.06 194Z" fill="white"/>
</mask>
<g mask="url(#mask13_4808_3)">
<path d="M258.756 1029.71L409.676 386.189L-222.962 577.113L258.756 1029.71Z" stroke="url(#paint9_linear_4808_3)" stroke-width="20" stroke-miterlimit="10"/>
</g>
<mask id="mask14_4808_3" style="mask-type:luminance" maskUnits="userSpaceOnUse" x="-95" y="194" width="1953" height="1575">
<path d="M1530.06 194L-95 684.428L232.058 1768.15L1857.12 1277.73L1530.06 194Z" fill="white"/>
</mask>
<g mask="url(#mask14_4808_3)">
<path opacity="0.15" d="M311.23 1203.59L537.174 240.157L-409.958 525.993L311.23 1203.59Z" stroke="url(#paint10_linear_4808_3)" stroke-width="20" stroke-miterlimit="10"/>
</g>
<mask id="mask15_4808_3" style="mask-type:luminance" maskUnits="userSpaceOnUse" x="-95" y="194" width="1953" height="1575">
<path d="M1530.06 194L-95 684.428L232.058 1768.15L1857.12 1277.73L1530.06 194Z" fill="white"/>
</mask>
<g mask="url(#mask15_4808_3)">
<path opacity="0.15" d="M708.684 1195.12C812.79 1163.7 871.707 1053.81 840.278 949.672C808.85 845.532 698.977 786.58 594.872 817.998C490.766 849.416 431.849 959.307 463.277 1063.45C494.706 1167.59 604.578 1226.54 708.684 1195.12Z" stroke="url(#paint11_linear_4808_3)" stroke-width="20" stroke-miterlimit="10"/>
</g>
<mask id="mask16_4808_3" style="mask-type:luminance" maskUnits="userSpaceOnUse" x="-95" y="194" width="1953" height="1575">
<path d="M1530.06 194L-95 684.428L232.058 1768.15L1857.12 1277.73L1530.06 194Z" fill="white"/>
</mask>
<g mask="url(#mask16_4808_3)">
<path d="M677.94 1093.25C725.803 1078.81 752.89 1028.28 738.441 980.405C723.992 932.527 673.478 905.423 625.615 919.868C577.752 934.313 550.665 984.835 565.114 1032.71C579.564 1080.59 630.078 1107.7 677.94 1093.25Z" stroke="url(#paint12_linear_4808_3)" stroke-width="20" stroke-miterlimit="10"/>
</g>
<mask id="mask17_4808_3" style="mask-type:luminance" maskUnits="userSpaceOnUse" x="596" y="33" width="1347" height="1833">
<path d="M596.496 182.668L820.504 1865.74L1942.43 1716.67L1718.42 33.5948L596.496 182.668Z" fill="white"/>
</mask>
<g mask="url(#mask17_4808_3)">
<path d="M1097.67 731.619C1094.66 709.033 1073.92 693.157 1051.34 696.158C1028.76 699.159 1012.89 719.901 1015.89 742.486C1018.9 765.072 1039.64 780.948 1062.22 777.947C1084.8 774.946 1100.67 754.204 1097.67 731.619Z" stroke="url(#paint13_linear_4808_3)" stroke-width="13" stroke-miterlimit="10"/>
</g>
<mask id="mask18_4808_3" style="mask-type:luminance" maskUnits="userSpaceOnUse" x="-28" y="54" width="2031" height="1952">
<path d="M1286.35 54.0622L-27.3522 1129.42L689.294 2005.47L2003 930.107L1286.35 54.0622Z" fill="white"/>
</mask>
<g mask="url(#mask18_4808_3)">
<path opacity="0.15" d="M1126 821.657C1172.71 783.419 1179.59 714.541 1141.37 667.813C1103.14 621.085 1034.28 614.202 987.569 652.44C940.855 690.678 933.975 759.556 972.201 806.284C1010.43 853.012 1079.28 859.895 1126 821.657Z" stroke="url(#paint14_linear_4808_3)" stroke-width="17" stroke-miterlimit="10"/>
</g>
<mask id="mask19_4808_3" style="mask-type:luminance" maskUnits="userSpaceOnUse" x="658" y="170" width="1800" height="2032">
<path d="M1460.2 170.396L658.012 1666.63L1655.33 2201.75L2457.51 705.511L1460.2 170.396Z" fill="white"/>
</mask>
<g mask="url(#mask19_4808_3)">
<path d="M1502.98 286.047C1513.75 265.969 1506.2 240.96 1486.13 230.189C1466.05 219.418 1441.05 226.963 1430.29 247.041C1419.52 267.119 1427.07 292.127 1447.15 302.898C1467.22 313.669 1492.22 306.125 1502.98 286.047Z" stroke="url(#paint15_linear_4808_3)" stroke-width="13" stroke-miterlimit="10"/>
</g>
<path opacity="0.15" d="M1498.23 371.191C1556.01 353.752 1588.72 292.757 1571.27 234.954C1553.83 177.151 1492.84 144.429 1435.06 161.868C1377.27 179.306 1344.57 240.302 1362.02 298.105C1379.46 355.908 1440.45 388.63 1498.23 371.191Z" stroke="url(#paint16_linear_4808_3)" stroke-width="17" stroke-miterlimit="10"/>
</g>
</g>
<g opacity="0.21" clip-path="url(#clip1_4808_3)">
<g opacity="0.92">
<mask id="mask20_4808_3" style="mask-type:luminance" maskUnits="userSpaceOnUse" x="1118" y="-1092" width="2040" height="1866">
<path d="M2551.45 -1092L1118 -182.855L1724.29 773.093L3157.75 -136.053L2551.45 -1092Z" fill="white"/>
</mask>
<g mask="url(#mask20_4808_3)">
<path opacity="0.15" d="M1989.38 293.382L1329.07 320.781L1683.12 879.009L1989.38 293.382Z" stroke="url(#paint17_linear_4808_3)" stroke-width="20" stroke-miterlimit="10"/>
</g>
<mask id="mask21_4808_3" style="mask-type:luminance" maskUnits="userSpaceOnUse" x="1118" y="-1092" width="2040" height="1866">
<path d="M2551.45 -1092L1118 -182.855L1724.29 773.093L3157.75 -136.053L2551.45 -1092Z" fill="white"/>
</mask>
<g mask="url(#mask21_4808_3)">
<path opacity="0.25" d="M2070.46 239.453L1327.98 270.263L1726.09 897.961L2070.46 239.453Z" stroke="white" stroke-width="2" stroke-miterlimit="10"/>
</g>
<mask id="mask22_4808_3" style="mask-type:luminance" maskUnits="userSpaceOnUse" x="1118" y="-1092" width="2040" height="1866">
<path d="M2551.45 -1092L1118 -182.855L1724.29 773.093L3157.75 -136.053L2551.45 -1092Z" fill="white"/>
</mask>
<g mask="url(#mask22_4808_3)">
<path d="M1825.63 397.233L1389.05 415.349L1623.14 784.441L1825.63 397.233Z" stroke="url(#paint18_linear_4808_3)" stroke-width="20" stroke-miterlimit="10"/>
</g>
<mask id="mask23_4808_3" style="mask-type:luminance" maskUnits="userSpaceOnUse" x="1118" y="-1092" width="2040" height="1866">
<path d="M2551.45 -1092L1118 -182.855L1724.29 773.093L3157.75 -136.053L2551.45 -1092Z" fill="white"/>
</mask>
<g mask="url(#mask23_4808_3)">
<path opacity="0.15" d="M2458.84 -227.709L1987.99 617.136L2955.09 602.75L2458.84 -227.709Z" stroke="url(#paint19_linear_4808_3)" stroke-width="20" stroke-miterlimit="10"/>
</g>
<mask id="mask24_4808_3" style="mask-type:luminance" maskUnits="userSpaceOnUse" x="1118" y="-1092" width="2040" height="1866">
<path d="M2551.45 -1092L1118 -182.855L1724.29 773.093L3157.75 -136.053L2551.45 -1092Z" fill="white"/>
</mask>
<g mask="url(#mask24_4808_3)">
<path d="M1551.54 54.6448L1523.95 -605.761L965.903 -251.829L1551.54 54.6448Z" stroke="url(#paint20_linear_4808_3)" stroke-width="20" stroke-miterlimit="10"/>
</g>
<mask id="mask25_4808_3" style="mask-type:luminance" maskUnits="userSpaceOnUse" x="1118" y="-1092" width="2040" height="1866">
<path d="M2551.45 -1092L1118 -182.855L1724.29 773.093L3157.75 -136.053L2551.45 -1092Z" fill="white"/>
</mask>
<g mask="url(#mask25_4808_3)">
<path opacity="0.15" d="M1648.82 208.019L1607.51 -780.686L772.048 -250.809L1648.82 208.019Z" stroke="url(#paint21_linear_4808_3)" stroke-width="20" stroke-miterlimit="10"/>
</g>
<mask id="mask26_4808_3" style="mask-type:luminance" maskUnits="userSpaceOnUse" x="1118" y="-1092" width="2040" height="1866">
<path d="M2551.45 -1092L1118 -182.855L1724.29 773.093L3157.75 -136.053L2551.45 -1092Z" fill="white"/>
</mask>
<g mask="url(#mask26_4808_3)">
<path opacity="0.15" d="M2029.37 93.0439C2121.2 34.8014 2148.42 -86.8815 2090.15 -178.742C2031.89 -270.603 1910.22 -297.857 1818.39 -239.614C1726.56 -181.372 1699.34 -59.689 1757.6 32.172C1815.87 124.033 1937.54 151.286 2029.37 93.0439Z" stroke="url(#paint22_linear_4808_3)" stroke-width="20" stroke-miterlimit="10"/>
</g>
<mask id="mask27_4808_3" style="mask-type:luminance" maskUnits="userSpaceOnUse" x="1118" y="-1092" width="2040" height="1866">
<path d="M2551.45 -1092L1118 -182.855L1724.29 773.093L3157.75 -136.053L2551.45 -1092Z" fill="white"/>
</mask>
<g mask="url(#mask27_4808_3)">
<path d="M1972.38 3.18478C2014.6 -23.5923 2027.11 -79.5361 2000.32 -121.769C1973.54 -164.003 1917.6 -176.532 1875.38 -149.755C1833.16 -122.978 1820.65 -67.0343 1847.43 -24.8011C1874.22 17.4321 1930.16 29.9618 1972.38 3.18478Z" stroke="url(#paint23_linear_4808_3)" stroke-width="20" stroke-miterlimit="10"/>
</g>
</g>
</g>
<defs>
<linearGradient id="paint0_linear_4808_3" x1="46.7706" y1="1549.22" x2="659.653" y2="1364.26" gradientUnits="userSpaceOnUse">
<stop stop-color="#00D5FF"/>
<stop offset="1" stop-color="#007DC6"/>
</linearGradient>
<linearGradient id="paint1_linear_4808_3" x1="46.7704" y1="1549.22" x2="474.024" y2="1420.28" gradientUnits="userSpaceOnUse">
<stop stop-color="#00D5FF"/>
<stop offset="1" stop-color="#007DC6"/>
</linearGradient>
<linearGradient id="paint2_linear_4808_3" x1="1012.38" y1="1748.22" x2="1175.32" y2="1128.94" gradientUnits="userSpaceOnUse">
<stop stop-color="#00D5FF"/>
<stop offset="1" stop-color="#007DC6"/>
</linearGradient>
<linearGradient id="paint3_linear_4808_3" x1="989.899" y1="1833.76" x2="1220.36" y2="957.887" gradientUnits="userSpaceOnUse">
<stop stop-color="#00D5FF"/>
<stop offset="1" stop-color="#007DC6"/>
</linearGradient>
<linearGradient id="paint4_linear_4808_3" x1="1764.32" y1="696.261" x2="1339.1" y2="824.587" gradientUnits="userSpaceOnUse">
<stop stop-color="#00D5FF"/>
<stop offset="1" stop-color="#007DC6"/>
</linearGradient>
<linearGradient id="paint5_linear_4808_3" x1="1837.94" y1="674.042" x2="1191.85" y2="869.027" gradientUnits="userSpaceOnUse">
<stop stop-color="#00D5FF"/>
<stop offset="1" stop-color="#007DC6"/>
</linearGradient>
<linearGradient id="paint6_linear_4808_3" x1="1581.06" y1="967.646" x2="1754.23" y2="1541.44" gradientUnits="userSpaceOnUse">
<stop stop-color="#00D5FF"/>
<stop offset="1" stop-color="#007DC6" stop-opacity="0"/>
</linearGradient>
<linearGradient id="paint7_linear_4808_3" x1="720.274" y1="332.128" x2="1126.82" y2="406.741" gradientUnits="userSpaceOnUse">
<stop stop-color="#00D5FF"/>
<stop offset="1" stop-color="#007DC6"/>
</linearGradient>
<linearGradient id="paint8_linear_4808_3" x1="631.752" y1="315.858" x2="1313.19" y2="440.92" gradientUnits="userSpaceOnUse">
<stop stop-color="#00D5FF"/>
<stop offset="1" stop-color="#007DC6"/>
</linearGradient>
<linearGradient id="paint9_linear_4808_3" x1="93.3569" y1="481.651" x2="258.756" y2="1029.71" gradientUnits="userSpaceOnUse">
<stop stop-color="#00D5FF"/>
<stop offset="1" stop-color="#007DC6" stop-opacity="0"/>
</linearGradient>
<linearGradient id="paint10_linear_4808_3" x1="63.6076" y1="383.075" x2="311.23" y2="1203.58" gradientUnits="userSpaceOnUse">
<stop stop-color="#00D5FF"/>
<stop offset="1" stop-color="#007DC6" stop-opacity="0"/>
</linearGradient>
<linearGradient id="paint11_linear_4808_3" x1="594.872" y1="817.998" x2="708.684" y2="1195.12" gradientUnits="userSpaceOnUse">
<stop stop-color="#00D5FF"/>
<stop offset="1" stop-color="#007DC6" stop-opacity="0"/>
</linearGradient>
<linearGradient id="paint12_linear_4808_3" x1="625.615" y1="919.868" x2="677.941" y2="1093.25" gradientUnits="userSpaceOnUse">
<stop stop-color="#00D5FF"/>
<stop offset="1" stop-color="#007DC6" stop-opacity="0"/>
</linearGradient>
<linearGradient id="paint13_linear_4808_3" x1="1015.89" y1="742.486" x2="1097.67" y2="731.605" gradientUnits="userSpaceOnUse">
<stop stop-color="#00D5FF"/>
<stop offset="1" stop-color="#007DC6" stop-opacity="0"/>
</linearGradient>
<linearGradient id="paint14_linear_4808_3" x1="987.569" y1="652.44" x2="1126.05" y2="821.616" gradientUnits="userSpaceOnUse">
<stop stop-color="#00D5FF"/>
<stop offset="1" stop-color="#007DC6" stop-opacity="0"/>
</linearGradient>
<linearGradient id="paint15_linear_4808_3" x1="1430.29" y1="247.041" x2="1503" y2="286.023" gradientUnits="userSpaceOnUse">
<stop stop-color="#00D5FF"/>
<stop offset="1" stop-color="#007DC6" stop-opacity="0"/>
</linearGradient>
<linearGradient id="paint16_linear_4808_3" x1="1435.06" y1="161.868" x2="1498.23" y2="371.191" gradientUnits="userSpaceOnUse">
<stop stop-color="#00D5FF"/>
<stop offset="1" stop-color="#007DC6" stop-opacity="0"/>
</linearGradient>
<linearGradient id="paint17_linear_4808_3" x1="1486.98" y1="612.017" x2="2027.6" y2="269.137" gradientUnits="userSpaceOnUse">
<stop stop-color="#00D5FF"/>
<stop offset="1" stop-color="#007DC6"/>
</linearGradient>
<linearGradient id="paint18_linear_4808_3" x1="1486.98" y1="612.017" x2="1863.86" y2="372.989" gradientUnits="userSpaceOnUse">
<stop stop-color="#00D5FF"/>
<stop offset="1" stop-color="#007DC6"/>
</linearGradient>
<linearGradient id="paint19_linear_4808_3" x1="2471.88" y1="632.606" x2="2458.46" y2="-272.984" gradientUnits="userSpaceOnUse">
<stop stop-color="#00D5FF"/>
<stop offset="1" stop-color="#007DC6"/>
</linearGradient>
<linearGradient id="paint20_linear_4808_3" x1="1244.93" y1="-428.795" x2="1551.54" y2="54.6448" gradientUnits="userSpaceOnUse">
<stop stop-color="#00D5FF"/>
<stop offset="1" stop-color="#007DC6" stop-opacity="0"/>
</linearGradient>
<linearGradient id="paint21_linear_4808_3" x1="1189.78" y1="-515.748" x2="1648.82" y2="208.019" gradientUnits="userSpaceOnUse">
<stop stop-color="#00D5FF"/>
<stop offset="1" stop-color="#007DC6" stop-opacity="0"/>
</linearGradient>
<linearGradient id="paint22_linear_4808_3" x1="1818.39" y1="-239.614" x2="2029.37" y2="93.0438" gradientUnits="userSpaceOnUse">
<stop stop-color="#00D5FF"/>
<stop offset="1" stop-color="#007DC6" stop-opacity="0"/>
</linearGradient>
<linearGradient id="paint23_linear_4808_3" x1="1875.38" y1="-149.755" x2="1972.38" y2="3.18477" gradientUnits="userSpaceOnUse">
<stop stop-color="#00D5FF"/>
<stop offset="1" stop-color="#007DC6" stop-opacity="0"/>
</linearGradient>
<clipPath id="clip0_4808_3">
<rect width="1697.45" height="1132" fill="white" transform="translate(-95 684.428) rotate(-16.7933)"/>
</clipPath>
<clipPath id="clip1_4808_3">
<rect width="1697.45" height="1132" fill="white" transform="translate(1118 -182.855) rotate(-32.3843)"/>
</clipPath>
</defs>
</svg>
