    <svg
      width="147"
      height="34"
      viewBox="0 0 147 34"
      fill="none"
      xmlns="http://www.w3.org/2000/svg"
    >
      <path
        d="M9.8 26.36C8.12 26.36 6.608 26.156 5.264 25.748C3.92 25.316 2.636 24.572 1.412 23.516C1.1 23.252 0.86 22.952 0.692 22.616C0.524 22.28 0.44 21.944 0.44 21.608C0.44 21.056 0.632 20.576 1.016 20.168C1.424 19.736 1.928 19.52 2.528 19.52C2.984 19.52 3.392 19.664 3.752 19.952C4.664 20.696 5.564 21.26 6.452 21.644C7.364 22.028 8.48 22.22 9.8 22.22C10.688 22.22 11.504 22.088 12.248 21.824C12.992 21.536 13.592 21.164 14.048 20.708C14.504 20.228 14.732 19.688 14.732 19.088C14.732 18.368 14.516 17.756 14.084 17.252C13.652 16.748 12.992 16.328 12.104 15.992C11.216 15.632 10.088 15.356 8.72 15.164C7.424 14.972 6.284 14.684 5.3 14.3C4.316 13.892 3.488 13.388 2.816 12.788C2.168 12.164 1.676 11.444 1.34 10.628C1.004 9.788 0.836 8.852 0.836 7.82C0.836 6.26 1.232 4.928 2.024 3.824C2.84 2.72 3.932 1.88 5.3 1.304C6.668 0.727998 8.18 0.439999 9.836 0.439999C11.396 0.439999 12.836 0.679998 14.156 1.16C15.5 1.616 16.592 2.204 17.432 2.924C18.128 3.476 18.476 4.112 18.476 4.832C18.476 5.36 18.272 5.84 17.864 6.272C17.456 6.704 16.976 6.92 16.424 6.92C16.064 6.92 15.74 6.812 15.452 6.596C15.068 6.26 14.552 5.948 13.904 5.66C13.256 5.348 12.572 5.096 11.852 4.904C11.132 4.688 10.46 4.58 9.836 4.58C8.804 4.58 7.928 4.712 7.208 4.976C6.512 5.24 5.984 5.6 5.624 6.056C5.264 6.512 5.084 7.04 5.084 7.64C5.084 8.36 5.288 8.96 5.696 9.44C6.128 9.896 6.74 10.268 7.532 10.556C8.324 10.82 9.272 11.06 10.376 11.276C11.816 11.54 13.076 11.852 14.156 12.212C15.26 12.572 16.172 13.04 16.892 13.616C17.612 14.168 18.152 14.876 18.512 15.74C18.872 16.58 19.052 17.612 19.052 18.836C19.052 20.396 18.62 21.74 17.756 22.868C16.892 23.996 15.752 24.86 14.336 25.46C12.944 26.06 11.432 26.36 9.8 26.36ZM44.9965 6.74C45.5485 6.74 46.0285 6.956 46.4365 7.388C46.8445 7.796 47.0485 8.324 47.0485 8.972C47.0485 9.14 47.0365 9.296 47.0125 9.44C46.9885 9.56 46.9525 9.68 46.9045 9.8L41.3965 24.632C41.2285 25.112 40.9285 25.484 40.4965 25.748C40.0645 25.988 39.6085 26.072 39.1285 26C38.3125 25.952 37.7005 25.496 37.2925 24.632L33.7285 14.372L34.6645 14.408L31.3165 24.632C30.9085 25.496 30.2965 25.952 29.4805 26C29.0245 26.072 28.5685 25.988 28.1125 25.748C27.6805 25.484 27.3805 25.112 27.2125 24.632L21.7045 9.8C21.6085 9.536 21.5605 9.26 21.5605 8.972C21.5605 8.396 21.7525 7.88 22.1365 7.424C22.5205 6.968 23.0485 6.74 23.7205 6.74C24.1765 6.74 24.5845 6.848 24.9445 7.064C25.3045 7.28 25.5565 7.628 25.7005 8.108L30.0565 19.916L29.1565 19.844L32.4325 10.952C32.8165 10.064 33.4765 9.62 34.4125 9.62C34.9405 9.62 35.3365 9.74 35.6005 9.98C35.8885 10.196 36.1165 10.52 36.2845 10.952L39.5605 19.844L38.4805 19.988L42.9085 8.108C43.1965 7.196 43.8925 6.74 44.9965 6.74ZM66.3619 6.38C66.9859 6.38 67.5019 6.584 67.9099 6.992C68.3179 7.4 68.5219 7.928 68.5219 8.576V23.804C68.5219 24.428 68.3179 24.956 67.9099 25.388C67.5019 25.796 66.9859 26 66.3619 26C65.7379 26 65.2219 25.796 64.8139 25.388C64.4059 24.956 64.2019 24.428 64.2019 23.804V22.04L64.9939 22.364C64.9939 22.676 64.8259 23.06 64.4899 23.516C64.1539 23.948 63.6979 24.38 63.1219 24.812C62.5459 25.244 61.8619 25.616 61.0699 25.928C60.3019 26.216 59.4619 26.36 58.5499 26.36C56.8939 26.36 55.3939 25.94 54.0499 25.1C52.7059 24.236 51.6379 23.06 50.8459 21.572C50.0779 20.06 49.6939 18.332 49.6939 16.388C49.6939 14.42 50.0779 12.692 50.8459 11.204C51.6379 9.692 52.6939 8.516 54.0139 7.676C55.3339 6.812 56.7979 6.38 58.4059 6.38C59.4379 6.38 60.3859 6.536 61.2499 6.848C62.1139 7.16 62.8579 7.556 63.4819 8.036C64.1299 8.516 64.6219 9.008 64.9579 9.512C65.3179 9.992 65.4979 10.4 65.4979 10.736L64.2019 11.204V8.576C64.2019 7.952 64.4059 7.436 64.8139 7.028C65.2219 6.596 65.7379 6.38 66.3619 6.38ZM59.0899 22.4C60.1459 22.4 61.0699 22.136 61.8619 21.608C62.6539 21.08 63.2659 20.36 63.6979 19.448C64.1539 18.536 64.3819 17.516 64.3819 16.388C64.3819 15.236 64.1539 14.204 63.6979 13.292C63.2659 12.38 62.6539 11.66 61.8619 11.132C61.0699 10.604 60.1459 10.34 59.0899 10.34C58.0579 10.34 57.1459 10.604 56.3539 11.132C55.5619 11.66 54.9379 12.38 54.4819 13.292C54.0499 14.204 53.8339 15.236 53.8339 16.388C53.8339 17.516 54.0499 18.536 54.4819 19.448C54.9379 20.36 55.5619 21.08 56.3539 21.608C57.1459 22.136 58.0579 22.4 59.0899 22.4ZM83.1714 6.38C84.8514 6.38 86.3514 6.812 87.6714 7.676C89.0154 8.516 90.0714 9.68 90.8394 11.168C91.6314 12.656 92.0274 14.384 92.0274 16.352C92.0274 18.32 91.6314 20.06 90.8394 21.572C90.0714 23.06 89.0274 24.236 87.7074 25.1C86.4114 25.94 84.9474 26.36 83.3154 26.36C82.3554 26.36 81.4554 26.204 80.6154 25.892C79.7754 25.58 79.0314 25.184 78.3834 24.704C77.7594 24.224 77.2674 23.744 76.9074 23.264C76.5714 22.76 76.4034 22.34 76.4034 22.004L77.5194 21.536V31.004C77.5194 31.628 77.3154 32.144 76.9074 32.552C76.4994 32.984 75.9834 33.2 75.3594 33.2C74.7354 33.2 74.2194 32.996 73.8114 32.588C73.4034 32.18 73.1994 31.652 73.1994 31.004V8.936C73.1994 8.312 73.4034 7.796 73.8114 7.388C74.2194 6.956 74.7354 6.74 75.3594 6.74C75.9834 6.74 76.4994 6.956 76.9074 7.388C77.3154 7.796 77.5194 8.312 77.5194 8.936V10.7L76.9074 10.376C76.9074 10.064 77.0754 9.692 77.4114 9.26C77.7474 8.804 78.2034 8.36 78.7794 7.928C79.3554 7.472 80.0154 7.1 80.7594 6.812C81.5274 6.524 82.3314 6.38 83.1714 6.38ZM82.6314 10.34C81.5754 10.34 80.6514 10.604 79.8594 11.132C79.0674 11.66 78.4434 12.38 77.9874 13.292C77.5554 14.18 77.3394 15.2 77.3394 16.352C77.3394 17.48 77.5554 18.512 77.9874 19.448C78.4434 20.36 79.0674 21.08 79.8594 21.608C80.6514 22.136 81.5754 22.4 82.6314 22.4C83.6874 22.4 84.5994 22.136 85.3674 21.608C86.1594 21.08 86.7714 20.36 87.2034 19.448C87.6594 18.512 87.8874 17.48 87.8874 16.352C87.8874 15.2 87.6594 14.18 87.2034 13.292C86.7714 12.38 86.1594 11.66 85.3674 11.132C84.5994 10.604 83.6874 10.34 82.6314 10.34ZM111.573 6.38C112.197 6.38 112.713 6.584 113.121 6.992C113.529 7.4 113.733 7.928 113.733 8.576V23.804C113.733 24.428 113.529 24.956 113.121 25.388C112.713 25.796 112.197 26 111.573 26C110.949 26 110.433 25.796 110.025 25.388C109.617 24.956 109.413 24.428 109.413 23.804V22.04L110.205 22.364C110.205 22.676 110.037 23.06 109.701 23.516C109.365 23.948 108.909 24.38 108.333 24.812C107.757 25.244 107.073 25.616 106.281 25.928C105.513 26.216 104.673 26.36 103.761 26.36C102.105 26.36 100.605 25.94 99.2608 25.1C97.9168 24.236 96.8488 23.06 96.0568 21.572C95.2888 20.06 94.9048 18.332 94.9048 16.388C94.9048 14.42 95.2888 12.692 96.0568 11.204C96.8488 9.692 97.9048 8.516 99.2248 7.676C100.545 6.812 102.009 6.38 103.617 6.38C104.649 6.38 105.597 6.536 106.461 6.848C107.325 7.16 108.069 7.556 108.693 8.036C109.341 8.516 109.833 9.008 110.169 9.512C110.529 9.992 110.709 10.4 110.709 10.736L109.413 11.204V8.576C109.413 7.952 109.617 7.436 110.025 7.028C110.433 6.596 110.949 6.38 111.573 6.38ZM104.301 22.4C105.357 22.4 106.281 22.136 107.073 21.608C107.865 21.08 108.477 20.36 108.909 19.448C109.365 18.536 109.593 17.516 109.593 16.388C109.593 15.236 109.365 14.204 108.909 13.292C108.477 12.38 107.865 11.66 107.073 11.132C106.281 10.604 105.357 10.34 104.301 10.34C103.269 10.34 102.357 10.604 101.565 11.132C100.773 11.66 100.149 12.38 99.6928 13.292C99.2608 14.204 99.0448 15.236 99.0448 16.388C99.0448 17.516 99.2608 18.536 99.6928 19.448C100.149 20.36 100.773 21.08 101.565 21.608C102.357 22.136 103.269 22.4 104.301 22.4ZM128.526 6.38C130.446 6.38 131.862 6.848 132.774 7.784C133.686 8.696 134.286 9.884 134.574 11.348L133.962 11.024L134.25 10.448C134.538 9.896 134.982 9.308 135.582 8.684C136.182 8.036 136.902 7.496 137.742 7.064C138.606 6.608 139.566 6.38 140.622 6.38C142.35 6.38 143.658 6.752 144.546 7.496C145.458 8.24 146.082 9.236 146.418 10.484C146.754 11.708 146.922 13.076 146.922 14.588V23.804C146.922 24.428 146.718 24.956 146.31 25.388C145.902 25.796 145.386 26 144.762 26C144.138 26 143.622 25.796 143.214 25.388C142.806 24.956 142.602 24.428 142.602 23.804V14.588C142.602 13.796 142.506 13.088 142.314 12.464C142.122 11.816 141.774 11.3 141.27 10.916C140.766 10.532 140.046 10.34 139.11 10.34C138.198 10.34 137.418 10.532 136.77 10.916C136.122 11.3 135.63 11.816 135.294 12.464C134.982 13.088 134.826 13.796 134.826 14.588V23.804C134.826 24.428 134.622 24.956 134.214 25.388C133.806 25.796 133.29 26 132.666 26C132.042 26 131.526 25.796 131.118 25.388C130.71 24.956 130.506 24.428 130.506 23.804V14.588C130.506 13.796 130.41 13.088 130.218 12.464C130.026 11.816 129.678 11.3 129.174 10.916C128.67 10.532 127.95 10.34 127.014 10.34C126.102 10.34 125.322 10.532 124.674 10.916C124.026 11.3 123.534 11.816 123.198 12.464C122.886 13.088 122.73 13.796 122.73 14.588V23.804C122.73 24.428 122.526 24.956 122.118 25.388C121.71 25.796 121.194 26 120.57 26C119.946 26 119.43 25.796 119.022 25.388C118.614 24.956 118.41 24.428 118.41 23.804V8.936C118.41 8.312 118.614 7.796 119.022 7.388C119.43 6.956 119.946 6.74 120.57 6.74C121.194 6.74 121.71 6.956 122.118 7.388C122.526 7.796 122.73 8.312 122.73 8.936V10.484L122.19 10.376C122.406 9.968 122.706 9.536 123.09 9.08C123.474 8.6 123.942 8.156 124.494 7.748C125.046 7.34 125.658 7.016 126.33 6.776C127.002 6.512 127.734 6.38 128.526 6.38Z"
        fill="#FEFEFE"
      />
    </svg>